:SAMPLES-PER-SECOND 30
:FULLY-SPECIFIED
:DEGREES
32
root  -8.58724 38.2376 0.103105 -162.632 -81.2241 156.789
RightUpLeg  -20.8662 -6.72155 -1.69891
RightLeg  0.742448 -21.352 7.14944
RightFoot  -2.80343 -0.597845 7.72481
RightToes  0.000482159 0.542163 -0.142577
Spine  10.7189 -2.60686 -4.64247
Spine1  11.8119 -4.74048 4.42255
HEad  13.6286 -8.05707 -0.581527
LeftShoulder1  5.96712 -8.34833 -43.7796
LeftArm  -21.7017 19.7453 -38.9005
LeftForeArm  11.4433 -4.64648 -1.69119
LeftHand  -0.25398 0.0180481 5.50724
RightShoulder  3.99334 6.78273 32.8762
RightArm  -6.12013 -25.331 47.2793
RightForeArm  14.3292 12.0122 6.74421
RightHand  -2.48462 7.55486 -22.4358
LeftUpLeg  18.7867 6.88981 -5.86193
LeftLeg  12.968 23.5266 -0.548626
LeftFoot  -25.721 -0.316545 -3.73127
LeftToes  1.06247e-005 4.65854e-005 -8.18501e-006
33
root  -9.87173 38 0.155716 -161.043 -82.488 155.578
RightUpLeg  -22.4107 -8.93555 -0.715878
RightLeg  4.09251 -19.8673 5.69321
RightFoot  -2.17878 -0.458682 5.58537
RightToes  0.000482159 0.542163 -0.142577
Spine  10.6881 -3.04948 -3.43829
Spine1  12.0181 -5.35309 5.05099
HEad  12.8652 -9.19126 -0.302052
LeftShoulder1  6.1248 -8.61419 -43.9637
LeftArm  -21.5181 18.0383 -38.0941
LeftForeArm  12.2486 -5.24219 -1.80449
LeftHand  -0.25398 0.0180481 5.50724
RightShoulder  3.99126 6.84188 32.6344
RightArm  -3.74229 -25.2475 46.1033
RightForeArm  13.2688 12.6529 6.91975
RightHand  -2.37798 7.02498 -22.3768
LeftUpLeg  20.666 7.31931 -5.11559
LeftLeg  12.7926 21.5597 -0.714191
LeftFoot  -25.8836 -0.40101 -4.35818
LeftToes  1.06247e-005 4.65854e-005 -8.18501e-006
34
root  -11.2492 37.8587 0.184433 -164.401 -83.4557 159.385
RightUpLeg  -24.9634 -14.9299 3.1158
RightLeg  10.0075 -14.2641 2.56861
RightFoot  -0.631425 -0.068539 0.730112
RightToes  0.000482159 0.542163 -0.142577
Spine  10.8942 -3.36003 -1.55977
Spine1  11.8861 -5.79813 5.75683
HEad  12.0951 -10.3375 -0.0253228
LeftShoulder1  6.26251 -8.86443 -44.0505
LeftArm  -21.7905 16.7516 -37.0918
LeftForeArm  12.7783 -6.44224 -1.83104
LeftHand  -0.25398 0.0180481 5.50724
RightShoulder  3.94725 6.78707 32.4122
RightArm  -3.94691 -24.3815 44.2344
RightForeArm  12.8406 12.0895 7.00072
RightHand  -2.24968 6.37568 -22.3204
LeftUpLeg  22.4933 8.79068 -3.2556
LeftLeg  13.0877 18.6169 -0.671944
LeftFoot  -24.8286 -0.502451 -5.5095
LeftToes  1.06247e-005 4.65854e-005 -8.18501e-006
35
root  -12.7491 37.7734 0.206625 -174.493 -83.4195 169.874
RightUpLeg  -27.9932 -21.0544 8.43861
RightLeg  16.2611 -7.28658 -1.09879
RightFoot  0.754237 0.419786 -3.9439
RightToes  0.000482159 0.542163 -0.142577
Spine  11.4257 -3.52529 1.23852
Spine1  11.431 -5.81663 6.0303
HEad  11.418 -11.1346 0.0406654
LeftShoulder1  6.34154 -9.0393 -43.9835
LeftArm  -22.3824 15.9246 -36.2161
LeftForeArm  13.2508 -7.96819 -1.80587
LeftHand  -0.25398 0.0180481 5.50724
RightShoulder  3.90913 6.73505 32.2344
RightArm  -6.56551 -22.6785 41.9126
RightForeArm  13.6054 10.6146 6.75083
RightHand  -2.00581 5.47838 -21.5552
LeftUpLeg  24.2951 12.7565 0.262767
LeftLeg  14.4877 13.4176 -0.186788
LeftFoot  -23.1814 -0.761731 -8.6794
LeftToes  1.06247e-005 4.65854e-005 -8.18501e-006
36
root  -14.3398 37.7105 0.214081 175.442 -82.2301 -179.88
RightUpLeg  -29.1644 -19.8738 9.99165
RightLeg  21.8769 -6.86439 -3.43735
RightFoot  0.777888 0.691257 -6.46469
RightToes  0.000482159 0.542163 -0.142577
Spine  12.229 -3.73937 4.34791
Spine1  10.93 -5.56267 5.80132
HEad  11.0075 -11.2126 -0.25037
LeftShoulder1  6.40536 -9.22046 -43.7864
LeftArm  -22.9439 15.512 -35.3784
LeftForeArm  13.9212 -9.47643 -1.79769
LeftHand  -0.25398 0.0180481 5.50724
RightShoulder  3.92212 6.83242 32.0006
RightArm  -10.3439 -20.2533 39.6761
RightForeArm  13.1398 8.97341 6.04656
RightHand  -1.84732 4.97455 -20.845
LeftUpLeg  25.9214 19.4256 5.31501
LeftLeg  17.6704 5.63575 0.765285
LeftFoot  -20.4213 -0.956162 -13.7256
LeftToes  1.06247e-005 4.65854e-005 -8.18501e-006
37
root  -15.9383 37.7004 0.168375 170.622 -80.6328 -174.971
RightUpLeg  -28.7365 -16.2877 9.51365
RightLeg  26.4937 -8.51427 -4.80587
RightFoot  -0.692816 0.741471 -8.00472
RightToes  0.000482159 0.542163 -0.142577
Spine  13.0918 -4.02873 6.71508
Spine1  10.4917 -5.40326 5.67205
HEad  11.0097 -10.6971 -0.750065
LeftShoulder1  6.50283 -9.51255 -43.4411
LeftArm  -23.0031 15.2827 -34.3286
LeftForeArm  14.914 -10.754 -1.9199
LeftHand  -0.25398 0.0180481 5.50724
RightShoulder  3.9513 7.02913 31.5674
RightArm  -13.8698 -17.5109 38.0462
RightForeArm  8.89585 8.22456 5.35492
RightHand  -1.95198 5.29822 -21.3277
LeftUpLeg  24.9211 22.2017 8.11514
LeftLeg  24.4283 2.74405 1.93641
LeftFoot  -13.8244 -0.299185 -17.1494
LeftToes  1.06247e-005 4.65854e-005 -8.18501e-006
38
root  -17.4325 37.7076 0.0526119 168.18 -79.4566 -172.285
RightUpLeg  -28.1267 -13.9851 9.45343
RightLeg  30.1333 -9.23879 -5.9915
RightFoot  -3.12273 0.653827 -9.36376
RightToes  0.000482159 0.542163 -0.142577
Spine  13.8957 -4.33457 8.09655
Spine1  10.0286 -5.46888 6.1685
HEad  11.2306 -10.2184 -0.98853
LeftShoulder1  6.62608 -9.88392 -43.0166
LeftArm  -22.5645 14.7257 -33.0302
LeftForeArm  16.2264 -11.919 -2.17199
LeftHand  -0.25398 0.0180481 5.50724
RightShoulder  3.93389 7.15056 30.9709
RightArm  -16.1618 -14.8073 37.0512
RightForeArm  1.61773 9.21214 5.32869
RightHand  -2.23713 6.10086 -22.7064
LeftUpLeg  19.4464 20.7122 8.15583
LeftLeg  35.5824 4.198 3.59892
LeftFoot  -2.33888 1.1854 -15.4679
LeftToes  1.06247e-005 4.65854e-005 -8.18501e-006
39
root  -18.728 37.6337 -0.0958769 164.51 -78.805 -168.276
RightUpLeg  -27.7757 -12.2387 9.82831
RightLeg  33.576 -10.1176 -7.40995
RightFoot  -5.91013 0.421607 -9.64106
RightToes  0.000482159 0.542163 -0.142577
Spine  14.7803 -4.6877 9.28735
Spine1  9.7528 -5.61189 7.13014
HEad  11.2409 -10.2991 -0.568117
LeftShoulder1  6.72747 -10.2016 -42.6432
LeftArm  -22.3176 13.4081 -31.7337
LeftForeArm  17.6896 -13.4117 -2.41138
LeftHand  -0.25398 0.0180481 5.50724
RightShoulder  3.87531 7.15346 30.4047
RightArm  -16.1488 -12.1563 36.4461
RightForeArm  -6.00948 12.1261 5.80749
RightHand  -2.44524 6.6569 -23.6487
LeftUpLeg  11.3374 18.3277 7.76345
LeftLeg  48.3078 4.21879 5.46218
LeftFoot  8.38654 1.82202 -10.6578
LeftToes  1.06247e-005 4.65854e-005 -8.18501e-006
40
root  -19.9531 37.586 -0.247185 161.41 -78.1862 -165.186
RightUpLeg  -26.802 -10.748 10.0352
RightLeg  36.4028 -10.836 -8.72995
RightFoot  -8.68548 0.144287 -8.68276
RightToes  0.000482159 0.542163 -0.142577
Spine  15.7296 -4.94079 10.3015
Spine1  9.82716 -5.63464 7.90635
HEad  10.975 -10.8577 0.397414
LeftShoulder1  6.75868 -10.3878 -42.2434
LeftArm  -22.98 11.5408 -30.7864
LeftForeArm  19.0925 -15.6871 -2.60573
LeftHand  -0.25398 0.0180481 5.50724
RightShoulder  3.82699 7.14561 29.9717
RightArm  -13.7056 -9.51338 36.2011
RightForeArm  -11.7869 16.4547 5.94592
RightHand  -2.47752 6.73154 -23.8033
LeftUpLeg  3.10439 15.3782 7.02456
LeftLeg  59.5846 3.31373 6.63797
LeftFoot  11.3123 1.36737 -7.07379
LeftToes  1.06247e-005 4.65854e-005 -8.18501e-006
41
root  -21.2856 37.7424 -0.423501 162.472 -77.2704 -166.737
RightUpLeg  -24.3097 -9.38087 9.33569
RightLeg  37.6238 -11.0613 -9.28999
RightFoot  -11.2358 -0.0693767 -7.5093
RightToes  0.000482159 0.542163 -0.142577
Spine  16.5101 -4.87836 10.3758
Spine1  9.98047 -5.45344 8.12537
HEad  10.8988 -11.4089 1.37302
LeftShoulder1  6.70878 -10.4732 -41.6352
LeftArm  -24.6342 9.87609 -30.3124
LeftForeArm  20.6639 -18.9432 -2.98579
LeftHand  -0.25398 0.0180481 5.50724
RightShoulder  3.80316 7.17604 29.6402
RightArm  -10.8046 -7.03132 36.4035
RightForeArm  -14.015 21.177 5.66852
RightHand  -2.55374 6.94746 -24.0909
LeftUpLeg  -4.10418 12.8047 5.74731
LeftLeg  67.4556 2.51745 7.40842
LeftFoot  7.85773 0.806392 -5.05024
LeftToes  1.06247e-005 4.65854e-005 -8.18501e-006
